<svg version="1.1" id="Layer_1" xmlns="http://www.w3.org/2000/svg" xmlns:xlink="http://www.w3.org/1999/xlink" x="0px" y="0px"
	 width="100%" viewBox="0 0 308 308" enable-background="new 0 0 308 308" xml:space="preserve">
<path fill="#040404" opacity="1.000000" stroke="none" 
	d="
M309.000000,100.000000 
	C309.000000,101.714378 309.000000,103.428749 308.653198,105.669518 
	C307.436188,108.365486 306.565979,110.535065 305.355347,112.801788 
	C304.374237,114.952782 303.733551,117.006622 302.903656,119.304596 
	C302.176575,120.415512 301.638641,121.282303 300.782654,122.100998 
	C299.857910,122.571075 299.251221,123.089256 298.278015,123.779968 
	C292.228027,124.416588 286.520050,124.695717 280.874420,125.444984 
	C278.895538,125.707603 277.070068,127.125847 274.861938,128.125336 
	C274.419678,128.855530 274.289978,129.476807 273.974640,130.427521 
	C270.306274,141.324677 266.983032,151.948898 263.266663,162.433792 
	C261.657715,166.973007 263.115265,167.894470 267.407104,167.833359 
	C272.020020,167.767715 276.654236,168.326675 281.258820,168.807617 
	C285.417816,169.242035 286.837982,171.409409 285.635925,175.244843 
	C284.643005,178.413040 283.557007,181.554443 282.426575,184.676697 
	C279.543457,192.639832 274.529907,196.169312 266.209839,196.169708 
	C263.376831,196.169830 260.498993,196.489609 257.720734,196.099716 
	C252.811859,195.410858 250.859451,198.054672 249.554443,202.149979 
	C246.983353,210.218506 244.407272,218.294128 241.502609,226.246048 
	C232.515778,250.848587 213.768051,264.039551 187.993500,263.458344 
	C177.666611,263.225464 167.327652,263.548096 156.999298,263.350677 
	C153.215332,263.278351 149.343155,262.824036 145.691223,261.861206 
	C137.560425,259.717529 130.517090,251.244431 130.680847,242.426910 
	C130.856003,232.995636 133.922821,224.522614 136.824509,215.881851 
	C138.904739,209.687225 141.059448,203.517624 143.581421,196.170029 
	C136.769958,196.170029 131.333267,196.388657 125.924454,196.094482 
	C122.214340,195.892685 120.565575,197.481964 119.472740,200.797043 
	C116.200722,210.722519 112.756699,220.592697 109.273094,230.446716 
	C102.952957,248.324402 84.233582,262.617584 65.499878,263.218231 
	C51.350510,263.671906 37.155678,263.748749 23.019094,263.127838 
	C15.784204,262.810059 8.587759,260.689484 3.838808,253.907333 
	C3.252907,249.860107 2.073087,246.220322 2.014316,242.562546 
	C1.925564,237.038895 2.618801,231.502655 3.010263,225.557220 
	C4.083242,221.652069 5.015304,218.123901 6.189001,214.678009 
	C9.556783,204.790451 13.049370,194.945465 16.444351,185.067062 
	C25.504343,158.705170 34.435593,132.298462 43.625420,105.981972 
	C48.515221,91.979256 51.695385,77.280655 61.163239,65.136314 
	C70.104179,53.667847 81.881783,47.365395 95.969460,46.517624 
	C110.735733,45.629021 125.600769,46.135162 140.413925,46.446629 
	C144.077850,46.523674 148.146515,47.456852 151.275131,49.286079 
	C162.677750,55.952919 164.181946,63.991932 161.230453,77.669846 
	C159.890915,83.877495 157.617722,89.883675 155.497589,96.872856 
	C162.793518,96.872856 169.075378,97.037727 175.331726,96.712151 
	C176.386459,96.657257 177.331055,94.485756 178.671829,93.192856 
	C179.872360,89.990372 180.727570,86.887222 181.692810,83.447815 
	C182.077621,82.211899 182.352402,81.312256 182.909851,80.223053 
	C183.997162,77.285805 184.801788,74.538132 185.730042,71.492523 
	C186.096344,70.598022 186.338989,70.001457 186.872055,69.225204 
	C188.412689,65.010193 189.662903,60.974865 191.091309,56.653473 
	C191.542648,55.277210 191.815796,54.187019 192.415741,53.014458 
	C193.469116,51.268005 194.195663,49.603924 195.119812,47.803013 
	C195.560211,47.455074 195.778824,47.221340 196.443817,46.974800 
	C207.341919,46.880581 217.769440,46.776543 228.232697,46.718678 
	C228.268433,46.764854 228.385223,46.765064 228.424591,47.207340 
	C227.487030,52.183678 226.510101,56.717739 225.420013,61.556301 
	C225.084106,62.470375 224.861343,63.079945 224.312408,63.825291 
	C222.826736,68.055328 221.667236,72.149597 220.397018,76.550598 
	C220.085999,77.477577 219.885696,78.097824 219.348694,78.832436 
	C218.149597,82.037498 217.287170,85.128204 216.322388,88.524872 
	C216.001968,89.437691 215.783890,90.044540 215.266052,90.777313 
	C214.897873,92.667824 214.829453,94.432426 214.823517,96.159454 
	C214.886017,96.121887 214.801331,96.240608 214.920837,96.613281 
	C226.310226,97.135124 237.580017,97.298370 248.850388,97.379784 
	C249.281921,97.382912 249.719131,96.597145 250.100357,96.101456 
	C250.047012,96.023933 250.178787,96.158379 250.541412,96.137566 
	C252.474304,92.225433 254.265060,88.406395 255.569290,84.427856 
	C258.358582,75.919106 260.896210,67.327835 263.636383,58.491203 
	C263.846069,57.832592 263.956268,57.453140 264.399353,56.971092 
	C265.841644,53.929504 266.951019,50.990501 268.284424,47.882164 
	C268.943604,47.360867 269.378754,47.008896 270.285095,46.756233 
	C280.574158,46.855541 290.391998,46.855541 300.789825,46.855541 
	C300.415283,49.511990 300.305023,51.278378 299.896027,52.972630 
	C299.223053,55.759991 298.356567,58.500633 297.467712,61.570930 
	C297.136780,62.492748 296.909760,63.104614 296.350464,63.838402 
	C294.861176,68.058647 293.704163,72.156967 292.443115,76.565437 
	C292.126984,77.493469 291.914856,78.111359 291.370178,78.850891 
	C289.866577,83.064705 288.695465,87.156876 287.416748,91.559235 
	C287.116150,92.496574 286.923157,93.123734 286.454224,93.771912 
	C286.398285,94.575775 286.618256,95.358620 286.915527,96.089157 
	C286.992767,96.036850 286.853638,96.161575 286.946106,96.543427 
	C288.789948,97.128380 290.547119,97.291046 292.291565,97.542030 
	C297.863586,98.343719 303.430878,99.178185 309.000000,100.000000 
M164.492081,135.011703 
	C165.293793,132.073425 166.095505,129.135132 167.132843,125.333221 
	C164.304916,125.333221 162.525528,125.337921 160.746170,125.332443 
	C150.089569,125.299637 139.427872,125.438835 128.779373,125.127342 
	C125.445641,125.029816 120.713310,124.807274 119.132950,122.730537 
	C115.887497,118.465736 114.270554,112.959351 116.505180,107.225853 
	C118.251663,102.744804 119.853325,98.203918 121.399765,93.649025 
	C124.399345,84.814018 121.967323,81.232697 112.852974,81.106308 
	C107.860092,81.037071 102.864098,81.144669 97.870117,81.215233 
	C92.274445,81.294289 88.114845,84.097389 86.202492,89.093422 
	C81.351151,101.767555 76.850380,114.580063 72.415733,127.408546 
	C65.317413,147.942459 58.362629,168.526138 51.394272,189.104736 
	C48.039886,199.010727 44.725391,208.931396 41.526070,218.888229 
	C39.932484,223.847702 42.747643,227.998566 47.853054,228.276382 
	C52.170956,228.511322 56.506336,228.485321 60.833717,228.474060 
	C72.015381,228.444946 77.086029,224.318405 80.717644,213.507034 
	C83.454071,205.360672 86.469101,197.248199 90.134979,189.486618 
	C97.012512,174.925140 108.003059,166.574783 125.015900,167.666885 
	C132.975754,168.177826 140.999100,167.618332 148.986511,167.822983 
	C152.025711,167.900848 153.519485,166.762451 154.443649,164.000046 
	C157.604797,154.551025 160.903809,145.148117 164.492081,135.011703 
M191.245987,161.605164 
	C189.244934,167.163803 189.604446,167.752548 195.210541,167.768448 
	C204.040131,167.793518 212.877686,167.557571 221.695770,167.876907 
	C225.459290,168.013184 227.121887,166.469208 228.204697,163.247513 
	C231.800476,152.548874 235.521606,141.892410 239.135742,131.199860 
	C239.695374,129.544159 239.946548,127.784203 240.503677,125.362701 
	C228.344849,125.362701 216.905487,125.274742 205.472885,125.512138 
	C204.441223,125.533569 202.996063,127.489906 202.517181,128.825317 
	C198.707230,139.449951 195.084549,150.141724 191.245987,161.605164 
M187.647079,196.139740 
	C179.552216,196.141281 179.465866,196.114807 176.997757,204.163269 
	C175.203201,210.015289 173.273270,215.875015 172.168686,221.872192 
	C171.426483,225.901962 173.716675,228.484421 178.264252,228.415619 
	C184.261475,228.324860 190.290344,228.718781 196.246613,228.211578 
	C199.213486,227.958954 202.971725,226.976288 204.780563,224.922348 
	C211.771957,216.983597 213.570679,206.786926 216.388290,196.139740 
	C206.530075,196.139740 197.569244,196.139740 187.647079,196.139740 
z"/>
<path fill="#FDFDFD" opacity="1.000000" stroke="none" 
	d="
M215.565826,90.651398 
	C215.783890,90.044540 216.001968,89.437691 216.647552,88.410645 
	C217.945175,84.899651 218.815292,81.808868 219.685394,78.718079 
	C219.885696,78.097824 220.085999,77.477577 220.696594,76.400047 
	C222.284119,71.858353 223.461349,67.773933 224.638580,63.689514 
	C224.861343,63.079945 225.084106,62.470375 225.723236,61.411583 
	C227.370819,57.579407 228.819138,54.252213 229.710602,50.781975 
	C230.005920,49.632359 228.867905,48.114540 228.385223,46.765064 
	C228.385223,46.765064 228.268433,46.764854 228.096741,46.353699 
	C217.822113,45.757652 207.719391,45.547939 197.615585,45.456364 
	C197.072754,45.451443 196.520889,46.439278 195.973236,46.964973 
	C195.778824,47.221340 195.560211,47.455074 194.753403,47.803841 
	C193.489243,49.659943 192.789078,51.378384 192.088928,53.096825 
	C191.815796,54.187019 191.542648,55.277210 190.743256,56.724018 
	C189.005203,61.188717 187.793427,65.296806 186.581635,69.404892 
	C186.338989,70.001457 186.096344,70.598022 185.393921,71.588188 
	C184.165176,74.792061 183.396179,77.602341 182.627182,80.412613 
	C182.352402,81.312256 182.077621,82.211899 181.371185,83.568817 
	C180.068527,87.114792 179.197525,90.203499 178.326523,93.292206 
	C177.331055,94.485756 176.386459,96.657257 175.331726,96.712151 
	C169.075378,97.037727 162.793518,96.872856 155.497589,96.872856 
	C157.617722,89.883675 159.890915,83.877495 161.230453,77.669846 
	C164.181946,63.991932 162.677750,55.952919 151.275131,49.286079 
	C148.146515,47.456852 144.077850,46.523674 140.413925,46.446629 
	C125.600769,46.135162 110.735733,45.629021 95.969460,46.517624 
	C81.881783,47.365395 70.104179,53.667847 61.163239,65.136314 
	C51.695385,77.280655 48.515221,91.979256 43.625420,105.981972 
	C34.435593,132.298462 25.504343,158.705170 16.444351,185.067062 
	C13.049370,194.945465 9.556783,204.790451 6.189001,214.678009 
	C5.015304,218.123901 4.083242,221.652069 2.736846,225.651733 
	C1.955245,226.440536 1.477625,226.720276 1.000003,227.000000 
	C1.000000,151.718918 1.000000,76.437851 1.000000,1.078386 
	C103.543137,1.078386 206.086365,1.078386 309.000000,1.078386 
	C309.000000,33.019943 309.000000,65.041313 308.598969,97.585938 
	C301.083160,97.459991 293.968414,96.810783 286.853638,96.161575 
	C286.853638,96.161575 286.992767,96.036850 287.001709,95.689690 
	C286.917175,94.811981 286.823669,94.281441 286.730164,93.750900 
	C286.923157,93.123734 287.116150,92.496574 287.716278,91.408363 
	C289.316528,86.874626 290.509613,82.801941 291.702728,78.729256 
	C291.914856,78.111359 292.126984,77.493469 292.744568,76.417290 
	C294.327637,71.878166 295.505219,67.797333 296.682739,63.716488 
	C296.909760,63.104614 297.136780,62.492748 297.766479,61.424728 
	C299.430695,57.743156 301.008209,54.599510 301.869476,51.270546 
	C302.833344,47.544788 301.434357,45.209751 297.054169,45.274345 
	C289.091248,45.391773 281.124573,45.253819 273.161499,45.365993 
	C272.039764,45.381802 270.929474,46.206585 269.813873,46.656921 
	C269.378754,47.008896 268.943604,47.360867 267.925934,47.900757 
	C266.251099,51.083683 265.158783,54.078686 264.066437,57.073685 
	C263.956268,57.453140 263.846069,57.832592 263.330627,58.633499 
	C258.676514,71.422760 254.427658,83.790573 250.178787,96.158379 
	C250.178787,96.158379 250.047012,96.023933 249.623688,96.055664 
	C237.734009,96.138474 226.267670,96.189537 214.801331,96.240601 
	C214.801331,96.240608 214.886017,96.121887 214.915970,95.759705 
	C215.152557,93.815475 215.359192,92.233437 215.565826,90.651398 
z"/>
<path fill="#FDFDFD" opacity="1.000000" stroke="none" 
	d="
M3.746760,254.306732 
	C8.587759,260.689484 15.784204,262.810059 23.019094,263.127838 
	C37.155678,263.748749 51.350510,263.671906 65.499878,263.218231 
	C84.233582,262.617584 102.952957,248.324402 109.273094,230.446716 
	C112.756699,220.592697 116.200722,210.722519 119.472740,200.797043 
	C120.565575,197.481964 122.214340,195.892685 125.924454,196.094482 
	C131.333267,196.388657 136.769958,196.170029 143.581421,196.170029 
	C141.059448,203.517624 138.904739,209.687225 136.824509,215.881851 
	C133.922821,224.522614 130.856003,232.995636 130.680847,242.426910 
	C130.517090,251.244431 137.560425,259.717529 145.691223,261.861206 
	C149.343155,262.824036 153.215332,263.278351 156.999298,263.350677 
	C167.327652,263.548096 177.666611,263.225464 187.993500,263.458344 
	C213.768051,264.039551 232.515778,250.848587 241.502609,226.246048 
	C244.407272,218.294128 246.983353,210.218506 249.554443,202.149979 
	C250.859451,198.054672 252.811859,195.410858 257.720734,196.099716 
	C260.498993,196.489609 263.376831,196.169830 266.209839,196.169708 
	C274.529907,196.169312 279.543457,192.639832 282.426575,184.676697 
	C283.557007,181.554443 284.643005,178.413040 285.635925,175.244843 
	C286.837982,171.409409 285.417816,169.242035 281.258820,168.807617 
	C276.654236,168.326675 272.020020,167.767715 267.407104,167.833359 
	C263.115265,167.894470 261.657715,166.973007 263.266663,162.433792 
	C266.983032,151.948898 270.306274,141.324677 274.251526,130.435211 
	C274.867523,129.414429 275.021027,128.715408 275.174500,128.016388 
	C277.070068,127.125847 278.895538,125.707603 280.874420,125.444984 
	C286.520050,124.695717 292.228027,124.416588 298.606750,123.917442 
	C299.901581,123.304611 300.501160,122.726852 301.100708,122.149094 
	C301.638641,121.282303 302.176575,120.415512 303.261353,119.253380 
	C304.437378,116.873573 305.066559,114.789108 305.695770,112.704643 
	C306.565979,110.535065 307.436188,108.365486 308.653198,106.097954 
	C309.000000,173.614517 309.000000,241.229019 309.000000,308.921753 
	C206.333359,308.921753 103.666687,308.921753 1.000000,308.921753 
	C1.000000,290.241913 1.000000,271.589600 1.323432,252.466949 
	C2.346830,252.766632 3.046796,253.536682 3.746760,254.306732 
z"/>
<path fill="#979797" opacity="1.000000" stroke="none" 
	d="
M286.946106,96.543427 
	C293.968414,96.810783 301.083160,97.459991 308.598969,98.054596 
	C309.000000,98.444443 309.000000,98.888893 309.000000,99.666664 
	C303.430878,99.178185 297.863586,98.343719 292.291565,97.542030 
	C290.547119,97.291046 288.789948,97.128380 286.946106,96.543427 
z"/>
<path fill="#4F4F4F" opacity="1.000000" stroke="none" 
	d="
M3.838810,253.907333 
	C3.046796,253.536682 2.346830,252.766632 1.323432,251.998291 
	C1.000000,243.979095 1.000000,235.958191 1.000003,227.468658 
	C1.477625,226.720276 1.955245,226.440536 2.706282,226.066284 
	C2.618801,231.502655 1.925564,237.038895 2.014316,242.562546 
	C2.073087,246.220322 3.252907,249.860107 3.838810,253.907333 
z"/>
<path fill="#FAFAFA" opacity="1.000000" stroke="none" 
	d="
M164.321167,135.369659 
	C160.903809,145.148117 157.604797,154.551025 154.443649,164.000046 
	C153.519485,166.762451 152.025711,167.900848 148.986511,167.822983 
	C140.999100,167.618332 132.975754,168.177826 125.015900,167.666885 
	C108.003059,166.574783 97.012512,174.925140 90.134979,189.486618 
	C86.469101,197.248199 83.454071,205.360672 80.717644,213.507034 
	C77.086029,224.318405 72.015381,228.444946 60.833717,228.474060 
	C56.506336,228.485321 52.170956,228.511322 47.853054,228.276382 
	C42.747643,227.998566 39.932484,223.847702 41.526070,218.888229 
	C44.725391,208.931396 48.039886,199.010727 51.394272,189.104736 
	C58.362629,168.526138 65.317413,147.942459 72.415733,127.408546 
	C76.850380,114.580063 81.351151,101.767555 86.202492,89.093422 
	C88.114845,84.097389 92.274445,81.294289 97.870117,81.215233 
	C102.864098,81.144669 107.860092,81.037071 112.852974,81.106308 
	C121.967323,81.232697 124.399345,84.814018 121.399765,93.649025 
	C119.853325,98.203918 118.251663,102.744804 116.505180,107.225853 
	C114.270554,112.959351 115.887497,118.465736 119.132950,122.730537 
	C120.713310,124.807274 125.445641,125.029816 128.779373,125.127342 
	C139.427872,125.438835 150.089569,125.299637 160.746170,125.332443 
	C162.525528,125.337921 164.304916,125.333221 167.132843,125.333221 
	C166.095505,129.135132 165.293793,132.073425 164.321167,135.369659 
z"/>
<path fill="#F5F5F5" opacity="1.000000" stroke="none" 
	d="
M191.325195,161.209030 
	C195.084549,150.141724 198.707230,139.449951 202.517181,128.825317 
	C202.996063,127.489906 204.441223,125.533569 205.472885,125.512138 
	C216.905487,125.274742 228.344849,125.362701 240.503677,125.362701 
	C239.946548,127.784203 239.695374,129.544159 239.135742,131.199860 
	C235.521606,141.892410 231.800476,152.548874 228.204697,163.247513 
	C227.121887,166.469208 225.459290,168.013184 221.695770,167.876907 
	C212.877686,167.557571 204.040131,167.793518 195.210541,167.768448 
	C189.604446,167.752548 189.244934,167.163803 191.325195,161.209030 
z"/>
<path fill="#F5F5F5" opacity="1.000000" stroke="none" 
	d="
M188.127747,196.139740 
	C197.569244,196.139740 206.530075,196.139740 216.388290,196.139740 
	C213.570679,206.786926 211.771957,216.983597 204.780563,224.922348 
	C202.971725,226.976288 199.213486,227.958954 196.246613,228.211578 
	C190.290344,228.718781 184.261475,228.324860 178.264252,228.415619 
	C173.716675,228.484421 171.426483,225.901962 172.168686,221.872192 
	C173.273270,215.875015 175.203201,210.015289 176.997757,204.163269 
	C179.465866,196.114807 179.552216,196.141281 188.127747,196.139740 
z"/>
<path fill="#979797" opacity="1.000000" stroke="none" 
	d="
M270.285095,46.756229 
	C270.929474,46.206585 272.039764,45.381802 273.161499,45.365993 
	C281.124573,45.253819 289.091248,45.391773 297.054169,45.274345 
	C301.434357,45.209751 302.833344,47.544788 301.869476,51.270546 
	C301.008209,54.599510 299.430695,57.743156 297.870453,61.114777 
	C298.356567,58.500633 299.223053,55.759991 299.896027,52.972630 
	C300.305023,51.278378 300.415283,49.511990 300.789825,46.855541 
	C290.391998,46.855541 280.574158,46.855541 270.285095,46.756229 
z"/>
<path fill="#979797" opacity="1.000000" stroke="none" 
	d="
M250.541412,96.137566 
	C254.427658,83.790573 258.676514,71.422760 263.231140,58.912659 
	C260.896210,67.327835 258.358582,75.919106 255.569290,84.427856 
	C254.265060,88.406395 252.474304,92.225433 250.541412,96.137566 
z"/>
<path fill="#979797" opacity="1.000000" stroke="none" 
	d="
M214.920837,96.613281 
	C226.267670,96.189537 237.734009,96.138474 249.677032,96.133194 
	C249.719131,96.597145 249.281921,97.382912 248.850388,97.379784 
	C237.580017,97.298370 226.310226,97.135124 214.920837,96.613281 
z"/>
<path fill="#979797" opacity="1.000000" stroke="none" 
	d="
M196.443817,46.974800 
	C196.520889,46.439278 197.072754,45.451443 197.615585,45.456364 
	C207.719391,45.547939 217.822113,45.757652 228.061005,46.307518 
	C217.769440,46.776543 207.341919,46.880581 196.443817,46.974800 
z"/>
<path fill="#979797" opacity="1.000000" stroke="none" 
	d="
M228.424591,47.207340 
	C228.867905,48.114540 230.005920,49.632359 229.710602,50.781975 
	C228.819138,54.252213 227.370819,57.579407 225.836365,61.107082 
	C226.510101,56.717739 227.487030,52.183678 228.424591,47.207340 
z"/>
<path fill="#979797" opacity="1.000000" stroke="none" 
	d="
M291.370178,78.850891 
	C290.509613,82.801941 289.316528,86.874626 287.823914,91.098183 
	C288.695465,87.156876 289.866577,83.064705 291.370178,78.850891 
z"/>
<path fill="#979797" opacity="1.000000" stroke="none" 
	d="
M296.350494,63.838406 
	C295.505219,67.797333 294.327637,71.878166 292.848572,76.107147 
	C293.704163,72.156967 294.861176,68.058647 296.350494,63.838406 
z"/>
<path fill="#979797" opacity="1.000000" stroke="none" 
	d="
M224.312408,63.825294 
	C223.461349,67.773933 222.284119,71.858353 220.807312,76.093315 
	C221.667236,72.149597 222.826736,68.055328 224.312408,63.825294 
z"/>
<path fill="#979797" opacity="1.000000" stroke="none" 
	d="
M186.872070,69.225204 
	C187.793427,65.296806 189.005203,61.188717 190.565048,57.010086 
	C189.662903,60.974865 188.412689,65.010193 186.872070,69.225204 
z"/>
<path fill="#979797" opacity="1.000000" stroke="none" 
	d="
M219.348709,78.832436 
	C218.815292,81.808868 217.945175,84.899651 216.749908,88.104675 
	C217.287170,85.128204 218.149597,82.037498 219.348709,78.832436 
z"/>
<path fill="#979797" opacity="1.000000" stroke="none" 
	d="
M178.671829,93.192856 
	C179.197525,90.203499 180.068527,87.114792 181.261169,83.905083 
	C180.727570,86.887222 179.872360,89.990372 178.671829,93.192856 
z"/>
<path fill="#979797" opacity="1.000000" stroke="none" 
	d="
M264.399353,56.971092 
	C265.158783,54.078686 266.251099,51.083683 267.701904,48.070091 
	C266.951019,50.990501 265.841644,53.929504 264.399353,56.971092 
z"/>
<path fill="#979797" opacity="1.000000" stroke="none" 
	d="
M182.909851,80.223053 
	C183.396179,77.602341 184.165176,74.792061 185.270294,71.886124 
	C184.801788,74.538132 183.997162,77.285805 182.909851,80.223053 
z"/>
<path fill="#9C9C9C" opacity="1.000000" stroke="none" 
	d="
M305.355347,112.801788 
	C305.066559,114.789108 304.437378,116.873573 303.450500,119.009247 
	C303.733551,117.006622 304.374237,114.952782 305.355347,112.801788 
z"/>
<path fill="#979797" opacity="1.000000" stroke="none" 
	d="
M215.266052,90.777313 
	C215.359192,92.233437 215.152557,93.815475 214.853485,95.797272 
	C214.829453,94.432426 214.897873,92.667824 215.266052,90.777313 
z"/>
<path fill="#979797" opacity="1.000000" stroke="none" 
	d="
M192.415741,53.014458 
	C192.789078,51.378384 193.489243,49.659943 194.555801,47.940670 
	C194.195663,49.603924 193.469116,51.268005 192.415741,53.014458 
z"/>
<path fill="#979797" opacity="1.000000" stroke="none" 
	d="
M286.454224,93.771912 
	C286.823669,94.281441 286.917175,94.811981 286.924469,95.741997 
	C286.618256,95.358620 286.398285,94.575775 286.454224,93.771912 
z"/>
<path fill="#9C9C9C" opacity="1.000000" stroke="none" 
	d="
M300.782654,122.100998 
	C300.501160,122.726852 299.901581,123.304611 298.973267,123.744904 
	C299.251221,123.089256 299.857910,122.571075 300.782654,122.100998 
z"/>
<path fill="#9C9C9C" opacity="1.000000" stroke="none" 
	d="
M274.861938,128.125336 
	C275.021027,128.715408 274.867523,129.414429 274.437134,130.105774 
	C274.289978,129.476807 274.419678,128.855530 274.861938,128.125336 
z"/>
</svg>