<?xml version="1.0" standalone="no"?>
<!DOCTYPE svg PUBLIC "-//W3C//DTD SVG 20010904//EN"
 "http://www.w3.org/TR/2001/REC-SVG-20010904/DTD/svg10.dtd">
<svg version="1.0" xmlns="http://www.w3.org/2000/svg"
 width="308.000000pt" height="308.000000pt" viewBox="0 0 308.000000 308.000000"
 preserveAspectRatio="xMidYMid meet">

<g transform="translate(0.000000,308.000000) scale(0.100000,-0.100000)"
fill="#ffffff" stroke="none">
<path d="M880 2620 c-87 -21 -173 -70 -239 -138 -98 -100 -118 -145 -296 -677
-24 -71 -89 -263 -145 -425 -204 -597 -200 -582 -200 -695 0 -91 2 -104 25
-137 17 -25 45 -47 83 -65 56 -27 61 -27 289 -31 139 -2 249 0 275 6 24 6 63
16 88 22 69 17 173 84 223 142 76 91 98 137 181 383 l41 120 99 3 c55 1 103
-1 107 -5 4 -4 -20 -88 -53 -187 -69 -207 -79 -265 -53 -333 23 -62 55 -96
119 -125 49 -22 60 -23 311 -23 247 0 263 1 330 24 91 30 150 68 217 139 65
69 110 159 174 347 26 77 51 146 57 152 6 9 43 13 116 13 104 0 108 1 133 27
34 37 53 75 78 152 20 60 20 64 4 82 -15 16 -32 19 -121 19 -95 0 -103 2 -103
19 0 11 21 79 46 153 25 73 50 149 56 168 6 19 17 47 24 63 14 27 15 27 117
27 77 0 108 4 125 16 24 16 50 67 76 148 22 69 21 93 -6 102 -34 12 -31 11
-118 13 -69 1 -80 3 -80 19 0 9 34 117 76 240 42 123 73 230 70 238 -4 11 -35
14 -161 14 -136 0 -157 -2 -173 -18 -10 -10 -40 -83 -66 -163 -26 -79 -50
-151 -53 -159 -3 -8 -18 -49 -32 -90 l-26 -75 -174 -3 c-96 -1 -178 1 -182 5
-8 9 -2 28 90 297 47 138 59 182 50 192 -9 11 -47 14 -163 14 -177 0 -186 -4
-211 -83 -9 -28 -20 -61 -25 -72 -5 -11 -32 -90 -60 -175 -29 -85 -57 -161
-62 -167 -12 -15 -193 -19 -202 -5 -3 5 9 51 25 103 54 168 44 269 -35 341
-55 51 -103 58 -380 57 -138 -1 -267 -5 -286 -9z m316 -364 c21 -29 18 -57
-21 -173 -19 -58 -35 -114 -35 -123 0 -28 39 -107 56 -114 9 -3 111 -6 227 -6
117 0 217 -4 224 -8 9 -6 -6 -59 -55 -202 -37 -107 -71 -201 -75 -207 -6 -10
-61 -13 -216 -13 l-207 0 -45 -28 c-98 -62 -173 -178 -233 -358 -66 -198 -85
-214 -255 -214 -92 0 -118 3 -133 17 -37 33 -40 22 182 673 67 195 143 421
170 501 88 269 100 280 293 276 95 -2 110 -5 123 -21z m1189 -426 c7 -11 -109
-364 -131 -397 -14 -22 -19 -23 -183 -23 -92 0 -170 3 -173 6 -10 9 113 385
134 412 13 15 343 18 353 2z m-235 -710 c0 -26 -74 -226 -93 -252 -37 -50 -64
-58 -196 -58 -113 0 -121 1 -135 22 -9 12 -16 30 -16 40 0 28 72 242 84 250
17 12 356 10 356 -2z"/>
</g>
</svg>
